<svg xmlns="http://www.w3.org/2000/svg" width="316.571" height="277" viewBox="0 0 316.571 277">
  <path id="Icon_awesome-bars" data-name="Icon awesome-bars" d="M11.306,55.1H305.265A11.306,11.306,0,0,0,316.571,43.79V15.525A11.306,11.306,0,0,0,305.265,4.219H11.306A11.306,11.306,0,0,0,0,15.525V43.79A11.306,11.306,0,0,0,11.306,55.1Zm0,113.061H305.265a11.306,11.306,0,0,0,11.306-11.306V128.586a11.306,11.306,0,0,0-11.306-11.306H11.306A11.306,11.306,0,0,0,0,128.586v28.265A11.306,11.306,0,0,0,11.306,168.158Zm0,113.061H305.265a11.306,11.306,0,0,0,11.306-11.306V241.647a11.306,11.306,0,0,0-11.306-11.306H11.306A11.306,11.306,0,0,0,0,241.647v28.265A11.306,11.306,0,0,0,11.306,281.219Z" transform="translate(0 -4.219)"/>
</svg>
