<svg xmlns="http://www.w3.org/2000/svg" width="227.378" height="58.209" viewBox="0 0 227.378 58.209">
  <g id="Group_939" data-name="Group 939" transform="translate(-46.622 -45.895)">
    <path id="logo-mpharma-condensed" d="M21.55,9.2a6.549,6.549,0,0,0-6.009,3.53A6.015,6.015,0,0,0,9.761,9.2c-2.22,0-4.67,1.19-5.32,3.453V9.589H0V27.5H4.44V18.066c0-3.414,2.067-4.565,4.135-4.565,1.913,0,3.406,1.42,3.406,4.3v9.7h4.44V18.488l.038.153c-.191-3.222,1.417-5.14,3.982-5.14,2.066,0,3.559,1.42,3.559,4.3v9.7h4.4V17.452c0-5.216-2.373-8.247-6.852-8.247ZM42.6,1.074H31.923V27.5h4.67V18.027H42.6c5.818,0,8.306-4.18,8.306-8.476C50.909,5.331,48.421,1.074,42.6,1.074Zm-.23,12.734h-5.78V5.255h5.9c2.68,0,3.751,2.224,3.751,4.3C46.239,11.7,45.129,13.808,42.373,13.808ZM63.2,9.2c-1.8,0-4.67.96-5.55,3.107V0h-4.44V27.5h4.44V18.142A4.271,4.271,0,0,1,62.2,13.578c1.99,0,3.712,1.458,3.712,4.3V27.5h4.44V17.452c0-5.216-2.564-8.247-7.157-8.247Zm24.344.384v2.378C86.315,10.087,83.827,9.2,81.569,9.2c-4.709,0-8.766,3.568-8.766,9.321,0,5.715,4.1,9.359,8.8,9.359,2.182,0,4.708-.882,5.933-2.8V27.5h4.44V9.59H87.54ZM82.3,23.7a5.057,5.057,0,0,1-5.014-5.216,4.991,4.991,0,0,1,5.014-5.14,5.178,5.178,0,0,1,0,10.356Zm23-14.5c-2.22,0-4.173,1.228-5.13,4.22V9.589H95.73V27.5h4.478V21.25c0-5.024,1.608-7.863,4.518-7.863a5.579,5.579,0,0,1,2.6.652l.88-4.219a6.538,6.538,0,0,0-2.908-.614Zm25.875,0a6.549,6.549,0,0,0-6.01,3.53,6.015,6.015,0,0,0-5.78-3.53c-2.22,0-4.67,1.19-5.32,3.453V9.589h-4.44V27.5h4.44V18.066c0-3.414,2.067-4.565,4.134-4.565,1.914,0,3.407,1.42,3.407,4.3v9.7h4.44V18.488l.038.153c-.191-3.222,1.417-5.14,3.98-5.14,2.068,0,3.561,1.42,3.561,4.3v9.7h4.4V17.452C138.027,12.236,135.654,9.2,131.175,9.2Zm24.076.384v2.378c-1.224-1.88-3.712-2.762-5.97-2.762-4.709,0-8.766,3.568-8.766,9.321,0,5.715,4.1,9.359,8.8,9.359,2.181,0,4.708-.882,5.932-2.8V27.5h4.44V9.59h-4.44ZM150.008,23.7a5.058,5.058,0,0,1-5.015-5.216,4.991,4.991,0,0,1,5.015-5.14,5.178,5.178,0,0,1,0,10.356Z" transform="translate(114.309 61.058)" fill="#151312" fill-rule="evenodd"/>
    <g id="Group_1" data-name="Group 1" transform="translate(-114.606 -130.178)">
      <g id="flower-bottom" transform="translate(161.229 176.073)">
        <path id="Path_1" data-name="Path 1" d="M59.7,37.532S53.965,30.1,46.622,26.855C51.877,20.789,53.9,11.627,53.9,11.627s-9.423-.154-16.55,3.573C35.867,7.3,29.917,0,29.917,0s-5.946,7.242-7.472,15.112C15.354,11.36,5.979,11.44,5.979,11.44s1.958,9.225,7.2,15.332C5.793,29.982,0,37.427,0,37.427s8.37,4.147,16.376,3.881c-2.071,7.731.079,16.814.079,16.814S25,54.178,29.806,47.735c4.76,6.474,13.283,10.474,13.283,10.474s2.218-9.1.178-16.856c8.019.311,16.434-3.821,16.434-3.821" transform="translate(0)" fill="#fabf0d" fill-rule="evenodd"/>
      </g>
      <path id="Path_2" data-name="Path 2" d="M256.279,284c-.759,3.925-.424,8.006,2.28,11.428a11.887,11.887,0,0,0-5.2-1.179A15.992,15.992,0,0,0,247,295.7c2.57,3,5.929,5.257,10.235,5.3-3.917,1.9-6,5.423-7.03,9.286,3.982-.133,7.874-1.36,10.6-4.733-.933,4.205.5,7.993,2.838,11.182,2.369-3.185,3.827-6.979,2.9-11.209,2.709,3.4,6.591,4.65,10.571,4.806-1.009-3.847-3.061-7.363-6.94-9.28,4.319-.013,7.7-2.26,10.3-5.264a16,16,0,0,0-6.457-1.5,11.88,11.88,0,0,0-5.158,1.161c2.7-3.395,3.061-7.449,2.331-11.359h0c-3.513,1.841-6.468,4.627-7.464,8.841-.968-4.244-3.927-7.061-7.449-8.93" transform="translate(-72.658 -92.792)" fill="#ff5100" fill-rule="evenodd"/>
    </g>
  </g>
</svg>
