<svg xmlns="http://www.w3.org/2000/svg" width="689.378" height="672.143" viewBox="0 0 689.378 672.143">
  <g id="Group_949" data-name="Group 949" transform="translate(-161.229 -176.073)" opacity="0.465">
    <g id="flower-bottom" transform="translate(161.229 176.073)">
      <path id="Path_1" data-name="Path 1" d="M689.378,433.381S623.134,347.618,538.349,310.1c60.671-70.048,83.989-175.844,83.989-175.844s-108.807-1.775-191.1,41.259C414.163,84.3,345.45,0,345.45,0s-68.661,83.625-86.279,174.5c-81.877-43.328-190.136-42.4-190.136-42.4s22.608,106.517,83.083,177.036C66.9,346.2,0,432.172,0,432.172s96.646,47.887,189.1,44.81c-23.918,89.267.912,194.147.912,194.147S288.719,625.593,344.175,551.2c54.965,74.756,153.382,120.943,153.382,120.943s25.608-105.105,2.053-194.638c92.6,3.6,189.767-44.124,189.767-44.124" transform="translate(0)" fill="#fabf0d" fill-rule="evenodd"/>
    </g>
    <path id="Path_2" data-name="Path 2" d="M354.14,284c-8.765,45.325-4.891,92.449,26.327,131.964a137.257,137.257,0,0,0-60.016-13.617c-25.2,0-50.016,6.511-73.451,16.728,29.682,34.692,68.468,60.706,118.179,61.168-45.224,21.9-69.254,62.614-81.177,107.223,45.981-1.539,90.916-15.7,122.445-54.657-10.773,48.557,5.751,92.292,32.766,129.118,27.355-36.78,44.191-80.59,33.5-129.431,31.286,39.243,76.107,53.7,122.064,55.49-11.656-44.418-35.351-85.025-80.131-107.158,49.866-.151,88.936-26.1,118.9-60.787-23.747-10.535-48.948-17.271-74.553-17.271a137.178,137.178,0,0,0-59.56,13.4c31.188-39.2,35.345-86.02,26.916-131.16v.006c-40.559,21.26-74.687,53.426-86.188,102.093C428.977,338.1,394.82,305.579,354.14,284" transform="translate(65.645 66.84)" fill="#ff5100" fill-rule="evenodd"/>
  </g>
</svg>
