<svg xmlns="http://www.w3.org/2000/svg" xmlns:xlink="http://www.w3.org/1999/xlink" width="356" height="150" viewBox="0 0 356 150">
  <defs>
    <filter id="Rectangle_142" x="0" y="0" width="356" height="150" filterUnits="userSpaceOnUse">
      <feOffset dy="20" input="SourceAlpha"/>
      <feGaussianBlur stdDeviation="15" result="blur"/>
      <feFlood flood-color="#c97f28" flood-opacity="0.333"/>
      <feComposite operator="in" in2="blur"/>
      <feComposite in="SourceGraphic"/>
    </filter>
  </defs>
  <g id="Group_952" data-name="Group 952" transform="translate(-607 -909)">
    <g transform="matrix(1, 0, 0, 1, 607, 909)" filter="url(#Rectangle_142)">
      <rect id="Rectangle_142-2" data-name="Rectangle 142" width="266" height="60" rx="30" transform="translate(45 25)" fill="#ef9368"/>
    </g>
    <text id="Add_product" data-name="Add product" transform="translate(736 969)" fill="#120707" font-size="17" font-family="Poppins-Bold, Poppins" font-weight="700" letter-spacing="-0.014em"><tspan x="0" y="0">Add product</tspan></text>
    <circle id="Ellipse_2" data-name="Ellipse 2" cx="15.5" cy="15.5" r="15.5" transform="translate(688 947)" fill="#fff" opacity="0.118"/>
    <path id="Icon_awesome-plus" data-name="Icon awesome-plus" d="M16.878,9.391H11.036V3.548a1.3,1.3,0,0,0-1.3-1.3h-1.3a1.3,1.3,0,0,0-1.3,1.3V9.391H1.3a1.3,1.3,0,0,0-1.3,1.3v1.3a1.3,1.3,0,0,0,1.3,1.3H7.141v5.842a1.3,1.3,0,0,0,1.3,1.3h1.3a1.3,1.3,0,0,0,1.3-1.3V13.286h5.842a1.3,1.3,0,0,0,1.3-1.3v-1.3A1.3,1.3,0,0,0,16.878,9.391Z" transform="translate(694.412 951.162)" fill="#fff"/>
  </g>
</svg>
