<svg xmlns="http://www.w3.org/2000/svg" xmlns:xlink="http://www.w3.org/1999/xlink" width="356" height="240" viewBox="0 0 356 240">
  <defs>
    <filter id="Rectangle_142" x="0" y="90" width="356" height="150" filterUnits="userSpaceOnUse">
      <feOffset dy="20" input="SourceAlpha"/>
      <feGaussianBlur stdDeviation="15" result="blur"/>
      <feFlood flood-opacity="0.059"/>
      <feComposite operator="in" in2="blur"/>
      <feComposite in="SourceGraphic"/>
    </filter>
  </defs>
  <g id="Group_950" data-name="Group 950" transform="translate(-23 -819)">
    <path id="Path_440" data-name="Path 440" d="M35,0H286a35,35,0,0,1,35,35V173a35,35,0,0,1-35,35H35A35,35,0,0,1,0,173V35A35,35,0,0,1,35,0Z" transform="translate(38 819)" fill="#fabf0d" opacity="0.137"/>
    <g id="Group_937" data-name="Group 937" transform="translate(68 934)">
      <g transform="matrix(1, 0, 0, 1, -45, -115)" filter="url(#Rectangle_142)">
        <rect id="Rectangle_142-2" data-name="Rectangle 142" width="266" height="60" rx="30" transform="translate(45 115)" fill="#f57134"/>
      </g>
      <text id="Add_product" data-name="Add product" transform="translate(84 35)" fill="#fff" font-size="17" font-family="Poppins-Bold, Poppins" font-weight="700" letter-spacing="-0.014em"><tspan x="0" y="0">Add product</tspan></text>
    </g>
    <text id="Add_a_new_product_to_the_catalog" data-name="Add a new product to the catalog" transform="translate(103 851)" font-size="20" font-family="SofiaPro-Light, Sofia Pro" font-weight="300" letter-spacing="-0.005em"><tspan x="0.761" y="22">Add a new </tspan><tspan y="22" font-family="SofiaPro-Bold, Sofia Pro" font-weight="700">product</tspan><tspan y="22" xml:space="preserve"> to </tspan><tspan x="48.27" y="51">the catalog</tspan></text>
    <path id="Icon_awesome-plus" data-name="Icon awesome-plus" d="M16.878,9.391H11.036V3.548a1.3,1.3,0,0,0-1.3-1.3h-1.3a1.3,1.3,0,0,0-1.3,1.3V9.391H1.3a1.3,1.3,0,0,0-1.3,1.3v1.3a1.3,1.3,0,0,0,1.3,1.3H7.141v5.842a1.3,1.3,0,0,0,1.3,1.3h1.3a1.3,1.3,0,0,0,1.3-1.3V13.286h5.842a1.3,1.3,0,0,0,1.3-1.3v-1.3A1.3,1.3,0,0,0,16.878,9.391Z" transform="translate(119.889 952.662)" fill="#fff"/>
  </g>
</svg>
